<svg width="23" height="19" viewBox="0 0 23 19" fill="none" xmlns="http://www.w3.org/2000/svg">
<path d="M19.4609 1.50665C18.0042 0.809335 16.427 0.303217 14.7841 0.0107939C14.7697 0.0103209 14.7554 0.0130967 14.7421 0.0189264C14.7289 0.0247561 14.717 0.0334979 14.7074 0.0445353C14.5103 0.415688 14.2803 0.899311 14.1269 1.27046C12.3844 1.00053 10.6122 1.00053 8.86966 1.27046C8.71632 0.888064 8.48632 0.415688 8.27822 0.0445353C8.26726 0.0220412 8.23441 0.0107939 8.20155 0.0107939C6.55865 0.303217 4.99241 0.809335 3.52475 1.50665C3.5138 1.50665 3.50285 1.5179 3.49189 1.52915C0.512765 6.1067 -0.308686 10.5605 0.0965633 14.9694C0.0965633 14.9919 0.107516 15.0144 0.129421 15.0256C2.1009 16.5102 3.99572 17.41 5.86863 18.0061C5.90148 18.0173 5.93434 18.0061 5.94529 17.9836C6.3834 17.365 6.7777 16.7127 7.11723 16.0266C7.13914 15.9816 7.11723 15.9366 7.07342 15.9254C6.44912 15.6779 5.85767 15.3855 5.27718 15.0481C5.23337 15.0256 5.23337 14.9581 5.26623 14.9244C5.38671 14.8344 5.50719 14.7332 5.62767 14.6432C5.64957 14.6207 5.68243 14.6207 5.70434 14.632C9.47206 16.3978 13.5355 16.3978 17.2594 14.632C17.2813 14.6207 17.3142 14.6207 17.3361 14.6432C17.4566 14.7444 17.577 14.8344 17.6975 14.9356C17.7413 14.9694 17.7413 15.0369 17.6866 15.0594C17.117 15.408 16.5146 15.6892 15.8903 15.9366C15.8465 15.9479 15.8356 16.0041 15.8465 16.0378C16.197 16.7239 16.5913 17.3762 17.0185 17.9948C17.0513 18.0061 17.0842 18.0173 17.117 18.0061C19.0009 17.41 20.8957 16.5102 22.8672 15.0256C22.8891 15.0144 22.9 14.9919 22.9 14.9694C23.382 9.87446 22.1005 5.45437 19.5047 1.52915C19.4938 1.5179 19.4828 1.50665 19.4609 1.50665ZM7.68677 12.2813C6.55865 12.2813 5.61671 11.2129 5.61671 9.89696C5.61671 8.58105 6.53674 7.51258 7.68677 7.51258C8.84776 7.51258 9.76778 8.5923 9.75683 9.89696C9.75683 11.2129 8.8368 12.2813 7.68677 12.2813ZM15.3208 12.2813C14.1927 12.2813 13.2507 11.2129 13.2507 9.89696C13.2507 8.58105 14.1708 7.51258 15.3208 7.51258C16.4818 7.51258 17.4018 8.5923 17.3908 9.89696C17.3908 11.2129 16.4818 12.2813 15.3208 12.2813Z" fill="white"/>
</svg>
