<svg width="28" height="17" viewBox="0 0 28 17" fill="none" xmlns="http://www.w3.org/2000/svg">
<path d="M7.8028 16.0107C9.87223 16.0107 11.8569 15.1679 13.3202 13.6676C14.7835 12.1673 15.6056 10.1325 15.6056 8.01074C15.6056 5.88901 14.7835 3.85418 13.3202 2.35389C11.8569 0.853597 9.87223 0.0107422 7.8028 0.0107422C5.73337 0.0107422 3.74869 0.853597 2.28539 2.35389C0.822078 3.85418 0 5.88901 0 8.01074C0 10.1325 0.822078 12.1673 2.28539 13.6676C3.74869 15.1679 5.73337 16.0107 7.8028 16.0107ZM20.331 15.3889C22.4489 15.3889 24.1662 12.0858 24.1662 8.01002C24.1662 3.9357 22.4489 0.63259 20.331 0.63259C18.2131 0.63259 16.4958 3.9357 16.4958 8.01002C16.4958 12.0858 18.2131 15.3889 20.331 15.3889ZM26.5054 14.6148C27.3319 14.6148 28 11.6564 28 8.01002C28 4.36224 27.3305 1.40667 26.5054 1.40667C25.679 1.40667 25.0094 4.36367 25.0094 8.01002C25.0094 11.6578 25.679 14.6148 26.5054 14.6148Z" fill="white"/>
</svg>
