<svg width="20" height="21" viewBox="0 0 20 21" fill="none" xmlns="http://www.w3.org/2000/svg">
<path d="M14.36 12.0107C14.44 11.3507 14.5 10.6907 14.5 10.0107C14.5 9.33074 14.44 8.67074 14.36 8.01074H17.74C17.9 8.65074 18 9.32074 18 10.0107C18 10.7007 17.9 11.3707 17.74 12.0107M12.59 17.5707C13.19 16.4607 13.65 15.2607 13.97 14.0107H16.92C15.9512 15.679 14.4141 16.9427 12.59 17.5707ZM12.34 12.0107H7.66C7.56 11.3507 7.5 10.6907 7.5 10.0107C7.5 9.33074 7.56 8.66074 7.66 8.01074H12.34C12.43 8.66074 12.5 9.33074 12.5 10.0107C12.5 10.6907 12.43 11.3507 12.34 12.0107ZM10 17.9707C9.17 16.7707 8.5 15.4407 8.09 14.0107H11.91C11.5 15.4407 10.83 16.7707 10 17.9707ZM6 6.01074H3.08C4.03864 4.33778 5.57466 3.07198 7.4 2.45074C6.8 3.56074 6.35 4.76074 6 6.01074ZM3.08 14.0107H6C6.35 15.2607 6.8 16.4607 7.4 17.5707C5.57827 16.943 4.04429 15.6789 3.08 14.0107ZM2.26 12.0107C2.1 11.3707 2 10.7007 2 10.0107C2 9.32074 2.1 8.65074 2.26 8.01074H5.64C5.56 8.67074 5.5 9.33074 5.5 10.0107C5.5 10.6907 5.56 11.3507 5.64 12.0107M10 2.04074C10.83 3.24074 11.5 4.58074 11.91 6.01074H8.09C8.5 4.58074 9.17 3.24074 10 2.04074ZM16.92 6.01074H13.97C13.6565 4.77235 13.1931 3.57685 12.59 2.45074C14.43 3.08074 15.96 4.35074 16.92 6.01074ZM10 0.0107422C4.47 0.0107422 0 4.51074 0 10.0107C0 12.6629 1.05357 15.2064 2.92893 17.0818C3.85752 18.0104 4.95991 18.747 6.17317 19.2495C7.38642 19.7521 8.68678 20.0107 10 20.0107C12.6522 20.0107 15.1957 18.9572 17.0711 17.0818C18.9464 15.2064 20 12.6629 20 10.0107C20 8.69752 19.7413 7.39716 19.2388 6.18391C18.7362 4.97065 17.9997 3.86826 17.0711 2.93967C16.1425 2.01109 15.0401 1.27449 13.8268 0.771947C12.6136 0.2694 11.3132 0.0107422 10 0.0107422Z" fill="white"/>
</svg>
